<svg viewBox="0 0 153 493" fill="none" xmlns="http://www.w3.org/2000/svg">
<path d="M152.876 473.423C150.03 499.299 0.649996 497.127 0.876356 473.421C3.72174 447.547 153.102 449.719 152.876 473.423Z" fill="#E6E6E6"/>
<path d="M50.259 407.02L44.204 420.14L33.1021 419.131L26.0381 395.918L37.139 389.863L50.259 407.02Z" fill="#FFB8B8"/>
<path d="M88.372 437.237L88.611 446.38L71.454 447.39V436.288L88.372 437.237Z" fill="#FFB8B8"/>
<path d="M82.5551 270.772L78.5181 351.511L88.6111 439.316L58.3331 443.353L39.1581 332.336L33.1021 256.642L82.5551 270.772Z" fill="#2F2E41"/>
<path d="M129.99 241.504C129.99 241.504 142.101 321.234 116.87 347.474C91.6385 373.715 57.3242 420.14 57.3242 420.14L33.1024 389.863L94.6663 324.262L82.5553 279.855L33.1023 256.642L41.1763 201.134L113.842 200.125L129.99 241.504Z" fill="#2F2E41"/>
<path d="M70.4443 56.812C82.7069 56.812 92.6477 46.8712 92.6477 34.6086C92.6477 22.346 82.7069 12.4052 70.4443 12.4052C58.1817 12.4052 48.241 22.346 48.241 34.6086C48.241 46.8712 58.1817 56.812 70.4443 56.812Z" fill="#FFB8B8"/>
<path d="M89.62 39.6548C89.62 39.6548 90.6293 70.9414 95.6755 74.9784C100.722 79.0154 77.509 96.1725 77.509 96.1725L62.3704 71.9507V49.7473L89.62 39.6548Z" fill="#FFB8B8"/>
<path d="M79.528 82.043L91.7809 63.541L98.7029 72.96L108.796 101.219L100.722 211.226L53.2869 212.236L47.2319 86.08L62.3699 67.914L79.528 82.043Z" fill="#D0CDE1"/>
<path d="M28.0561 89.1078L19.9821 88.0986C19.9821 88.0986 17.9636 89.1078 16.9544 96.1725C15.9452 103.237 3.83423 165.81 3.83423 165.81L19.9821 242.513L38.1485 218.291L27.0469 175.903L38.1486 133.515L28.0561 89.1078Z" fill="#2F2E41"/>
<path d="M130.999 88.099H137.054L152.193 169.847L138.064 233.43L123.934 210.217L127.971 184.986L125.953 162.783L118.888 149.662L130.999 88.099Z" fill="#2F2E41"/>
<path d="M41.1762 416.103C41.1762 416.103 47.2317 414.085 47.2317 418.122C47.2317 422.159 43.1947 434.269 43.1947 434.269C43.1947 434.269 49.2502 471.611 40.167 469.593C31.0838 467.575 24.0191 450.417 23.0099 445.371C22.0006 440.325 16.9544 414.085 16.9544 414.085C16.9544 414.085 8.8804 394.909 13.9267 393.9C18.9729 392.89 33.1023 388.853 33.1023 388.853C33.1023 388.853 25.0283 414.084 41.1762 416.103Z" fill="#2F2E41"/>
<path d="M70.4444 447.39C70.4444 447.39 86.5922 437.297 89.62 445.371C91.628 451.26 92.9818 457.352 93.657 463.537C93.657 463.537 97.694 476.658 81.5461 474.639C65.3981 472.621 67.4166 472.621 66.4074 466.565C65.3981 460.51 70.4444 447.39 70.4444 447.39Z" fill="#2F2E41"/>
<path d="M83.5646 34.6086L79.5275 33.5994C79.5275 33.5994 76.4998 16.4422 69.4351 18.4607C62.3704 20.4792 44.204 22.4977 44.204 14.4237C44.204 6.34972 61.3612 -0.714956 71.4536 0.294294C81.5461 1.30354 98.7032 4.33128 97.694 19.4699C96.6847 34.6086 90.1723 49.3353 90.1723 49.3353L89.6462 40.3597L83.5646 34.6086Z" fill="#2F2E41"/>
<path d="M62.3701 94.154L79.5281 82.043L62.3701 67.914L56.4141 75.062L62.3701 94.154Z" fill="#D0CDE1"/>
<path d="M94.6661 93.145L79.5281 82.043L91.6381 63.877L98.7031 72.96L94.6661 93.145Z" fill="#D0CDE1"/>
<path d="M20.9915 88.0986L53.2873 74.9784L60.8566 69.4276L83.5646 169.847L98.7032 124.431L94.1617 66.3998L136.045 88.0986L121.916 156.727L119.897 182.968L125.953 204.162C125.953 204.162 147.147 219.3 140.082 235.448C133.018 251.596 124.944 252.605 124.944 252.605C124.944 252.605 90.6293 220.31 88.6108 212.236C86.5923 204.162 83.5646 190.032 83.5646 190.032C83.5646 190.032 66.4074 254.624 46.2226 253.615C26.0378 252.605 26.0377 231.411 26.0377 231.411L31.0839 209.208L39.1579 185.995L35.1209 147.644L20.9915 88.0986Z" fill="#2F2E41"/>
</svg>
