<svg viewBox="0 0 722 198" fill="none" xmlns="http://www.w3.org/2000/svg">
<path d="M98.7538 197.508C153.294 197.508 197.508 153.294 197.508 98.7538C197.508 44.2136 153.294 0 98.7538 0C44.2136 0 0 44.2136 0 98.7538C0 153.294 44.2136 197.508 98.7538 197.508Z" fill="#E6E6E6"/>
<path d="M98.7538 181.049C144.204 181.049 181.049 144.204 181.049 98.7538C181.049 53.3036 144.204 16.459 98.7538 16.459C53.3036 16.459 16.459 53.3036 16.459 98.7538C16.459 144.204 53.3036 181.049 98.7538 181.049Z" fill="#0AAAE6"/>
<path d="M361 197.508C415.54 197.508 459.754 153.294 459.754 98.7538C459.754 44.2136 415.54 0 361 0C306.46 0 262.246 44.2136 262.246 98.7538C262.246 153.294 306.46 197.508 361 197.508Z" fill="#E6E6E6"/>
<path d="M361 181.049C406.45 181.049 443.295 144.204 443.295 98.7538C443.295 53.3036 406.45 16.459 361 16.459C315.55 16.459 278.705 53.3036 278.705 98.7538C278.705 144.204 315.55 181.049 361 181.049Z" fill="white"/>
<path d="M361.295 181.59C406.745 181.59 443.59 144.745 443.59 99.2948C443.59 53.8447 406.745 17 361.295 17C315.845 17 279 53.8447 279 99.2948C279 144.745 315.845 181.59 361.295 181.59Z" fill="#0AAAE6"/>
<path d="M623.246 197.508C677.786 197.508 722 153.294 722 98.7538C722 44.2136 677.786 0 623.246 0C568.706 0 524.492 44.2136 524.492 98.7538C524.492 153.294 568.706 197.508 623.246 197.508Z" fill="#E6E6E6"/>
<path d="M623.246 181.049C668.696 181.049 705.541 144.204 705.541 98.7538C705.541 53.3036 668.696 16.459 623.246 16.459C577.796 16.459 540.951 53.3036 540.951 98.7538C540.951 144.204 577.796 181.049 623.246 181.049Z" fill="white"/>
<path d="M91.121 132.566L67.146 101.741L81.088 90.896L92.44 105.492L130.789 65.011L143.612 77.16L91.121 132.566Z" fill="white"/>
<path d="M346.975 132.555L323 101.73L336.942 90.885L348.294 105.481L386.643 65L399.466 77.149L346.975 132.555Z" fill="white"/>
</svg>
