<svg viewBox="0 0 79 352" fill="none" xmlns="http://www.w3.org/2000/svg">
<path d="M26.5349 79.7751C40.4248 79.7751 51.6847 68.5151 51.6847 54.6253C51.6847 40.7355 40.4248 29.4755 26.5349 29.4755C12.6451 29.4755 1.38513 40.7355 1.38513 54.6253C1.38513 68.5151 12.6451 79.7751 26.5349 79.7751Z" stroke="#3F3D56" stroke-miterlimit="10"/>
<path d="M77.7949 7.32629L71.7142 1.2137C71.4162 0.909015 71.0608 0.666357 70.6685 0.499726C70.2762 0.333095 69.8548 0.245789 69.4286 0.242844C69.0024 0.2399 68.5799 0.32138 68.1853 0.482575C67.7908 0.643771 67.432 0.8815 67.1298 1.18204L28.9588 39.0345L12.8181 22.7665C12.5214 22.4654 12.1681 22.2258 11.7787 22.0612C11.3893 21.8966 10.9712 21.8104 10.5485 21.8074C10.1257 21.8045 9.70653 21.8849 9.31484 22.0439C8.92314 22.203 8.56661 22.4378 8.26564 22.7347L2.12136 28.8154C1.51293 29.4211 1.16828 30.2425 1.16231 31.101C1.15634 31.9595 1.48955 32.7856 2.0895 33.3997L26.6031 58.1041C27.2088 58.7125 28.0302 59.0572 28.8887 59.0632C29.7472 59.0691 30.5734 58.7359 31.1875 58.136L77.7631 11.9106C78.0678 11.6126 78.3104 11.2572 78.4771 10.865C78.6437 10.4727 78.731 10.0513 78.734 9.62511C78.7369 9.19892 78.6554 8.77636 78.4943 8.38181C78.3331 7.98726 78.0954 7.62852 77.7949 7.32629Z" fill="#0AAAE6"/>
<path d="M26.5349 170.314C40.4248 170.314 51.6847 159.054 51.6847 145.165C51.6847 131.275 40.4248 120.015 26.5349 120.015C12.6451 120.015 1.38513 131.275 1.38513 145.165C1.38513 159.054 12.6451 170.314 26.5349 170.314Z" stroke="#3F3D56" stroke-miterlimit="10"/>
<path d="M26.5349 260.854C40.4248 260.854 51.6847 249.594 51.6847 235.704C51.6847 221.814 40.4248 210.554 26.5349 210.554C12.6451 210.554 1.38513 221.814 1.38513 235.704C1.38513 249.594 12.6451 260.854 26.5349 260.854Z" stroke="#3F3D56" stroke-miterlimit="10"/>
<path d="M26.5349 351.393C40.4248 351.393 51.6847 340.133 51.6847 326.243C51.6847 312.353 40.4248 301.093 26.5349 301.093C12.6451 301.093 1.38513 312.353 1.38513 326.243C1.38513 340.133 12.6451 351.393 26.5349 351.393Z" stroke="#3F3D56" stroke-miterlimit="10"/>
<path d="M77.7949 98.7038L71.7142 92.5912C71.4162 92.2865 71.0608 92.0439 70.6685 91.8773C70.2762 91.7106 69.8548 91.6233 69.4286 91.6204C69.0024 91.6174 68.5799 91.6989 68.1853 91.8601C67.7908 92.0213 67.432 92.259 67.1298 92.5596L28.9588 130.412L12.8181 114.144C12.5214 113.843 12.1681 113.603 11.7787 113.439C11.3893 113.274 10.9712 113.188 10.5485 113.185C10.1257 113.182 9.70653 113.262 9.31484 113.421C8.92314 113.581 8.56661 113.815 8.26564 114.112L2.12136 120.193C1.51293 120.799 1.16828 121.62 1.16231 122.479C1.15634 123.337 1.48955 124.163 2.0895 124.777L26.6031 149.482C27.2088 150.09 28.0302 150.435 28.8887 150.441C29.7472 150.447 30.5734 150.113 31.1875 149.513L77.7631 103.288C78.0678 102.99 78.3104 102.635 78.4771 102.242C78.6437 101.85 78.731 101.429 78.734 101.003C78.7369 100.576 78.6554 100.154 78.4943 99.7594C78.3331 99.3648 78.0954 99.0061 77.7949 98.7038Z" fill="#0AAAE6"/>
<path d="M77.6327 190.084L71.552 183.971C71.2539 183.666 70.8985 183.424 70.5062 183.257C70.114 183.09 69.6926 183.003 69.2664 183C68.8402 182.997 68.4176 183.079 68.0231 183.24C67.6285 183.401 67.2698 183.639 66.9676 183.939L28.7966 221.792L12.6559 205.524C12.3591 205.223 12.0059 204.983 11.6165 204.818C11.227 204.654 10.809 204.568 10.3862 204.565C9.96349 204.562 9.5443 204.642 9.15261 204.801C8.76091 204.96 8.40438 205.195 8.10341 205.492L1.95912 211.573C1.35069 212.178 1.00605 213 1.00008 213.858C0.99411 214.717 1.32731 215.543 1.92726 216.157L26.4409 240.861C27.0466 241.47 27.868 241.814 28.7265 241.82C29.585 241.826 30.4111 241.493 31.0252 240.893L77.6008 194.668C77.9055 194.37 78.1482 194.014 78.3148 193.622C78.4815 193.23 78.5688 192.809 78.5717 192.382C78.5747 191.956 78.4932 191.534 78.332 191.139C78.1709 190.745 77.9332 190.386 77.6327 190.084Z" fill="#0AAAE6"/>
<path d="M77.7949 281.459L71.7142 275.346C71.4162 275.042 71.0608 274.799 70.6685 274.632C70.2762 274.466 69.8548 274.378 69.4286 274.376C69.0024 274.373 68.5799 274.454 68.1853 274.615C67.7908 274.776 67.432 275.014 67.1298 275.315L28.9588 313.167L12.8181 296.899C12.5214 296.598 12.1681 296.358 11.7787 296.194C11.3893 296.029 10.9712 295.943 10.5485 295.94C10.1257 295.937 9.70653 296.018 9.31484 296.177C8.92314 296.336 8.56661 296.57 8.26564 296.867L2.12136 302.948C1.51293 303.554 1.16828 304.375 1.16231 305.234C1.15634 306.092 1.48955 306.918 2.0895 307.532L26.6031 332.237C27.2088 332.845 28.0302 333.19 28.8887 333.196C29.7472 333.202 30.5734 332.869 31.1875 332.269L77.7631 286.043C78.0677 285.745 78.3104 285.39 78.477 284.998C78.6436 284.605 78.7309 284.184 78.7339 283.758C78.7369 283.332 78.6554 282.909 78.4943 282.514C78.3331 282.12 78.0954 281.761 77.7949 281.459Z" fill="#0AAAE6"/>
</svg>
