<svg viewBox="0 0 1010 676" fill="none" xmlns="http://www.w3.org/2000/svg">
<path opacity="0.1" d="M586.557 111.402C521.837 109.152 460.197 88.262 401.327 65.402C342.457 42.542 284.167 17.212 220.997 5.10197C180.367 -2.68803 133.907 -3.78803 101.167 17.992C69.6666 38.992 59.4866 75.142 54.0066 108.712C49.8966 133.982 47.4666 160.562 58.7566 184.212C66.5866 200.632 80.4966 214.432 90.1166 230.162C123.577 284.882 99.9266 352.362 63.6566 405.792C46.6566 430.852 26.9166 454.792 13.7866 481.452C0.656641 508.112 -5.41336 538.702 6.06664 565.922C17.4566 592.922 44.5866 613.162 73.9666 627.412C133.657 656.352 203.967 664.642 272.587 669.332C424.407 679.722 577.047 675.222 729.267 670.722C785.607 669.052 842.187 667.362 897.607 658.652C928.387 653.812 960.167 646.132 982.507 627.652C1010.87 604.122 1017.9 564.272 998.897 534.772C967.017 485.282 878.897 472.982 856.587 419.872C844.317 390.642 856.917 358.072 874.737 330.962C912.977 272.792 977.067 221.772 980.447 155.282C982.767 109.622 951.957 63.892 904.317 42.282C854.377 19.632 785.137 22.482 748.317 59.972C710.357 98.532 643.697 113.382 586.557 111.402Z" fill="#2EB6E9"/>
<path d="M356.02 590.54C353.91 585.74 351.91 580.22 354.02 575.42C355.397 572.593 357.763 570.37 360.67 569.17C363.546 567.997 366.578 567.249 369.67 566.95C379.374 565.677 389.194 565.543 398.93 566.55C399.64 572.17 398.14 577.87 396.85 583.3C395.68 588.3 395.01 589.04 389.85 589.3C386.51 589.48 356.81 592.31 356.02 590.54Z" fill="#FBBEBE"/>
<path d="M445.07 558.16C524.047 558.16 588.07 540.251 588.07 518.16C588.07 496.069 524.047 478.16 445.07 478.16C366.093 478.16 302.07 496.069 302.07 518.16C302.07 540.251 366.093 558.16 445.07 558.16Z" fill="#464353"/>
<path opacity="0.1" d="M445.07 558.16C524.047 558.16 588.07 540.251 588.07 518.16C588.07 496.069 524.047 478.16 445.07 478.16C366.093 478.16 302.07 496.069 302.07 518.16C302.07 540.251 366.093 558.16 445.07 558.16Z" fill="black"/>
<path d="M470.71 307C465.808 316.472 457.667 323.867 447.77 327.84C441.927 329.969 435.777 331.138 429.56 331.3C422.77 331.61 415.84 331.17 409.46 328.85C400.9 325.75 393.79 319.41 388.46 312.02C383.13 304.63 379.46 296.19 376.27 287.68C374.59 283.25 372.99 278.53 373.78 273.85C378.93 272.68 384.57 270.96 387.23 266.39C389.5 262.47 388.87 257.77 387.56 253.29C387.19 252.02 386.76 250.76 386.33 249.55C385.33 246.65 381.88 241.14 384.33 238.66C385.86 237.09 392.27 236.29 394.48 235.27C401.29 232.13 407.57 227.59 415.05 226.1C421.52 224.81 428.2 226.02 434.66 227.36C435.517 227.485 436.34 227.78 437.08 228.23C437.924 228.941 438.548 229.878 438.88 230.93C440.72 235.41 441.8 240.36 443.28 245.03C444.82 249.92 446.8 254.51 450.51 257.98C453.4 260.69 457.08 262.39 460.68 264.04L469.54 268.1C471.116 268.69 472.545 269.615 473.73 270.81C474.889 272.403 475.581 274.286 475.73 276.25C477.318 286.773 475.562 297.528 470.71 307V307Z" fill="#FBBEBE"/>
<path opacity="0.1" d="M443.24 245.03C436.184 252.376 426.891 257.172 416.816 258.667C406.741 260.162 396.454 258.271 387.57 253.29C387.2 252.02 386.77 250.76 386.34 249.55C385.34 246.65 381.89 241.14 384.34 238.66C385.87 237.09 392.28 236.29 394.49 235.27C401.3 232.13 407.58 227.59 415.06 226.1C421.53 224.81 428.21 226.02 434.67 227.36C435.527 227.485 436.35 227.78 437.09 228.23C437.934 228.941 438.558 229.878 438.89 230.93C440.68 235.41 441.76 240.36 443.24 245.03Z" fill="black"/>
<path d="M410.07 257.16C435.475 257.16 456.07 236.565 456.07 211.16C456.07 185.755 435.475 165.16 410.07 165.16C384.665 165.16 364.07 185.755 364.07 211.16C364.07 236.565 384.665 257.16 410.07 257.16Z" fill="#FBBEBE"/>
<path d="M550.22 360.45L546.44 337.55C544.53 326.06 542.56 314.35 537.22 304C533.71 297.22 528.14 290.76 520.63 289.42C519.151 289.288 517.697 288.952 516.31 288.42C514.11 287.36 512.91 284.98 511.22 283.22C506.86 278.7 499.76 278.63 493.92 276.33C488.76 274.33 484.54 270.48 479.84 267.54C475.14 264.6 469.29 262.54 464.09 264.42C463.25 273.37 462.36 282.52 458.56 290.67C456.087 295.976 452.459 300.662 447.942 304.385C443.424 308.108 438.132 310.775 432.452 312.189C426.771 313.604 420.847 313.731 415.111 312.562C409.375 311.392 403.973 308.956 399.3 305.43C390.39 298.72 384.68 288.37 382.02 277.54C381.37 274.9 380.63 271.87 378.2 270.66C375.57 269.34 372.41 270.94 370.2 272.88C366.2 276.47 362.93 281.61 357.67 282.82C355.77 283.26 353.67 283.17 352.09 284.32C351.04 285.289 350.161 286.428 349.49 287.69C348.339 289.316 346.801 290.631 345.015 291.514C343.229 292.397 341.251 292.822 339.26 292.75C337.43 292.66 335.26 292.24 334.01 293.57C333.08 294.57 333.01 296.13 332.01 297.06C330.66 298.37 328.47 297.73 326.59 297.66C323.03 297.51 319.72 299.79 317.68 302.66C315.64 305.53 314.68 309.08 313.68 312.52C324.61 336.86 334.61 361.23 345.54 385.57C346.052 386.487 346.324 387.519 346.33 388.57C346.111 389.66 345.646 390.686 344.97 391.57C339.61 400.18 339.78 411.01 340.37 421.13C340.96 431.25 341.68 441.94 337.16 451.01C335.93 453.5 334.33 455.78 333.16 458.27C330.42 463.91 329.43 481.95 331.03 488.01H557.11C552.8 476.16 554.44 452.38 555.34 439.8C555.97 431 554.34 422.21 553.64 413.41C552.11 395.44 553.19 378.39 550.22 360.45Z" fill="#2EB6E9"/>
<path d="M296.36 386.65C295.96 389.544 295.92 392.476 296.24 395.38L299.11 436.65C299.38 440.54 299.65 444.42 300.01 448.3C300.7 455.83 301.73 463.3 303.01 470.76C303.039 471.819 303.487 472.824 304.255 473.553C305.024 474.282 306.051 474.677 307.11 474.65C319.76 477.33 332.83 477.22 345.74 476.49C365.44 475.39 385.11 472.88 404.84 473.31C409.92 473.42 415.84 473.31 418.92 469.31C422 465.31 420.21 458.84 416.19 455.61C412.17 452.38 406.71 451.61 401.55 451.61C394.72 451.54 387.89 452.51 381.08 452.11C374.83 451.74 368.72 450.23 362.66 448.72L345.66 444.49C346.31 439.34 348.27 434.49 350.13 429.6C353.47 420.93 356.59 411.97 356.65 402.68C356.71 393.39 353.21 383.62 345.6 378.3C339.34 373.93 331.28 373.12 323.65 373.3C318.1 373.46 308.51 372.13 303.44 374.3C299.43 376.06 297.11 382.72 296.36 386.65Z" fill="#FBBEBE"/>
<path d="M561.79 481.01C565.12 479.74 568.79 480.2 572.36 480.68C583.85 482.25 595.51 483.86 606.16 488.45C611.16 490.59 615.92 493.45 619.3 497.66C622.3 501.45 624.05 506.09 625.71 510.66L629.55 521.18C631.01 525.18 632.49 529.26 632.9 533.51C634.1 546.1 625.49 557.97 614.66 564.51C603.83 571.05 591.08 573.38 578.66 575.82C566.24 578.26 553.77 580.96 541.4 583.82C535.63 585.317 529.777 586.469 523.87 587.27C510.63 588.77 496.79 586.56 484.21 590.94C479.21 592.69 474.3 595.29 469.11 596.5C465.663 597.225 462.177 597.756 458.67 598.09L434.86 600.81C430.018 601.458 425.144 601.832 420.26 601.93C409.86 601.93 399.63 599.47 389.53 597.01C388.456 596.822 387.434 596.409 386.53 595.8C384.93 594.54 384.58 592.31 384.35 590.29C383.33 581.35 382.437 572.4 381.67 563.44C381.43 560.53 381.25 557.38 382.84 554.93C384.84 551.93 388.74 550.99 392.3 550.41C407.396 547.941 422.688 546.879 437.98 547.24C443.79 541.43 453.37 541.4 460.98 538.24C463.78 536.954 466.489 535.481 469.09 533.83C482.703 525.888 497.915 521.081 513.62 519.76C516.695 519.666 519.751 519.23 522.73 518.46C528.62 516.63 533.99 511.65 540.04 512.87C540.79 510.8 541.31 508.03 543.04 506.61C543.9 505.88 544.96 505.39 545.75 504.61C547.42 502.92 547.57 500.26 547.32 497.9C547.07 495.54 546.51 493.12 547.12 490.82C547.374 489.949 547.747 489.118 548.23 488.35C551.23 483.17 555.76 480.51 561.79 481.01Z" fill="#464353"/>
<path opacity="0.05" d="M561.79 481.01C565.12 479.74 568.79 480.2 572.36 480.68C583.85 482.25 595.51 483.86 606.16 488.45C611.16 490.59 615.92 493.45 619.3 497.66C622.3 501.45 624.05 506.09 625.71 510.66L629.55 521.18C631.01 525.18 632.49 529.26 632.9 533.51C634.1 546.1 625.49 557.97 614.66 564.51C603.83 571.05 591.08 573.38 578.66 575.82C566.24 578.26 553.77 580.96 541.4 583.82C535.63 585.317 529.777 586.469 523.87 587.27C510.63 588.77 496.79 586.56 484.21 590.94C479.21 592.69 474.3 595.29 469.11 596.5C465.663 597.225 462.177 597.756 458.67 598.09L434.86 600.81C430.018 601.458 425.144 601.832 420.26 601.93C409.86 601.93 399.63 599.47 389.53 597.01C388.456 596.822 387.434 596.409 386.53 595.8C384.93 594.54 384.58 592.31 384.35 590.29C383.33 581.35 382.437 572.4 381.67 563.44C381.43 560.53 381.25 557.38 382.84 554.93C384.84 551.93 388.74 550.99 392.3 550.41C407.396 547.941 422.688 546.879 437.98 547.24C443.79 541.43 453.37 541.4 460.98 538.24C463.78 536.954 466.489 535.481 469.09 533.83C482.703 525.888 497.915 521.081 513.62 519.76C516.695 519.666 519.751 519.23 522.73 518.46C528.62 516.63 533.99 511.65 540.04 512.87C540.79 510.8 541.31 508.03 543.04 506.61C543.9 505.88 544.96 505.39 545.75 504.61C547.42 502.92 547.57 500.26 547.32 497.9C547.07 495.54 546.51 493.12 547.12 490.82C547.374 489.949 547.747 489.118 548.23 488.35C551.23 483.17 555.76 480.51 561.79 481.01Z" fill="black"/>
<path d="M365.22 596.72C359.03 603.89 353.58 606.45 343.89 606.22C337.93 606.08 331.977 605.77 326.03 605.29C321.965 604.851 317.878 604.66 313.79 604.72C301.45 605.2 289.54 610.85 277.23 609.86C275.41 609.717 273.61 609.382 271.86 608.86C269.067 608.091 266.543 606.56 264.57 604.44C262.21 601.77 261.08 598.23 260.43 594.73C257.14 576.79 266.16 557.25 281.95 548.12C284.01 546.789 286.352 545.957 288.79 545.69C291.181 545.68 293.544 546.199 295.71 547.21L295.86 547.27C302.275 549.91 308.101 553.798 313 558.71C313.743 559.561 314.63 560.275 315.62 560.82C316.608 561.193 317.654 561.39 318.71 561.4L331.85 562.23C334.076 562.296 336.289 562.602 338.45 563.14C340.832 563.972 343.152 564.974 345.39 566.14C352.46 569.3 360.3 570.14 367.94 571.36C368.676 571.401 369.379 571.682 369.94 572.16C370.245 572.539 370.457 572.984 370.56 573.46C371.634 577.479 371.708 581.699 370.778 585.753C369.847 589.807 367.939 593.572 365.22 596.72V596.72Z" fill="#3F3D56"/>
<path opacity="0.1" d="M295.86 547.28C290.762 552.148 286.339 557.677 282.71 563.72C276.886 573.693 273.227 584.78 271.97 596.26C271.493 600.448 271.457 604.674 271.86 608.87C269.067 608.101 266.543 606.57 264.57 604.45C262.21 601.78 261.08 598.24 260.43 594.74C257.14 576.8 266.16 557.26 281.95 548.13C284.01 546.799 286.352 545.967 288.79 545.7C291.181 545.69 293.544 546.209 295.71 547.22L295.86 547.28Z" fill="black"/>
<path d="M550.35 572.16C557.7 571.96 565.95 571.59 571.35 576.54C576.5 581.22 577.18 588.94 577.52 595.89L577.91 603.96C578.03 606.42 578.13 608.96 577.14 611.24C575.38 615.24 570.55 617.17 566.14 616.94C561.73 616.71 557.68 614.78 553.65 613.04C542.709 608.327 531.317 604.738 519.65 602.33C520.03 596.75 520.663 591.197 521.55 585.67C522.16 581.84 522.26 575.43 524.82 572.25C527.53 568.89 531.06 570.71 534.74 571.33C539.904 572.118 545.132 572.396 550.35 572.16V572.16Z" fill="#FBBEBE"/>
<path d="M356.11 491.07C356.11 492.07 354.54 491.07 354.4 490C353.3 481.91 346.88 475.24 339.4 472C331.92 468.76 323.4 468.59 315.3 469.36C303.05 470.52 289.3 475.21 284.82 486.66C283.76 489.34 283.28 492.24 281.98 494.81C280.54 497.63 278.19 499.88 276.63 502.62C273.94 507.36 273.83 513.17 274.8 518.53C277.41 532.83 287.19 545.06 299.04 553.53C310.89 562 324.74 567.06 338.55 571.62C375.067 583.663 412.532 592.612 450.55 598.37C456.71 599.3 462.93 600.16 468.83 602.14C474.11 603.91 479.05 606.56 484.21 608.64C496.21 613.46 509.12 615.18 521.91 616.87C524.09 617.15 526.59 617.35 528.2 615.87C530.28 613.94 529.59 610.58 529 607.81C526.829 597.278 528.65 586.315 534.11 577.05C536.25 573.45 539.03 569.76 538.63 565.59C538.15 560.73 533.31 557.29 528.49 556.51C523.67 555.73 518.77 556.88 513.93 557.51C512.26 557.73 510.44 557.87 508.98 557.02C508.261 556.534 507.608 555.956 507.04 555.3C503.706 552.084 499.438 550.006 494.85 549.364C490.262 548.723 485.588 549.551 481.5 551.73C479.71 552.73 477 550.5 475.14 549.66L454.11 540.14C429.95 529.21 405.67 518.23 380.11 511.31C378.071 510.909 376.132 510.103 374.41 508.94C373.14 507.94 372.23 506.58 371.06 505.47C368.51 503.06 364.96 502.1 361.9 500.39C358.84 498.68 355.41 494.5 356.11 491.07Z" fill="#464353"/>
<path d="M680.32 621.76C676.96 627.99 670.44 631.87 663.44 633.47C661.683 633.866 659.898 634.121 658.1 634.23C649.25 634.78 640.51 632.33 631.98 629.91L620.4 626.65C618.409 626.023 616.368 625.568 614.3 625.29C611.484 625.102 608.656 625.199 605.86 625.58C592.174 626.853 578.377 626.234 564.86 623.74C563.729 623.618 562.643 623.231 561.69 622.61C560.855 621.792 560.114 620.883 559.48 619.9C556.33 616.11 552.94 613.9 556.67 608.9C558.82 606 562.81 604.55 564.48 601.22C566.15 597.89 565.08 593.16 564.09 589.72C562.74 584.97 558.3 582.92 556.71 578.56C555.52 575.27 557.52 571.45 560.53 569.66C563.54 567.87 567.26 567.73 570.73 568.19C574.2 568.65 577.6 569.63 581.09 569.9C591.35 570.72 601.84 565.43 611.69 568.41C613.86 569.07 615.91 570.12 618.11 570.7C622.399 571.659 626.879 571.272 630.94 569.59C632.38 569.05 633.79 568.4 635.19 567.76C637.89 566.354 640.765 565.315 643.74 564.67C653.35 563.02 662.26 569.67 669.51 576.16C671.999 578.226 674.201 580.613 676.06 583.26C678.06 586.38 679.12 590.01 680.06 593.59C682.71 602.84 684.9 613.26 680.32 621.76Z" fill="#3F3D56"/>
<path opacity="0.1" d="M680.32 621.76C676.96 627.99 670.44 631.87 663.44 633.47C666.163 628.18 667.39 622.246 666.99 616.31C666.39 606.8 662.21 597.84 656.88 589.94C653.601 585.077 649.871 580.534 645.74 576.37C642.56 573.17 638.65 570.63 635.23 567.7C637.93 566.294 640.805 565.255 643.78 564.61C653.39 562.96 662.3 569.61 669.55 576.1C672.039 578.166 674.241 580.553 676.1 583.2C678.1 586.32 679.16 589.95 680.1 593.53C682.71 602.84 684.9 613.26 680.32 621.76Z" fill="black"/>
<path d="M313.11 313.26C312.136 314.28 311.38 315.488 310.89 316.81C302.807 335.027 298.032 354.539 296.79 374.43C296.812 375.4 296.588 376.36 296.14 377.22C295.698 377.793 295.206 378.325 294.67 378.81C294.183 379.387 293.82 380.058 293.603 380.781C293.385 381.504 293.319 382.264 293.407 383.014C293.495 383.763 293.736 384.487 294.115 385.14C294.494 385.793 295.003 386.362 295.61 386.81C297.26 383.7 301.21 382.69 304.72 382.42C321.53 381.09 337.95 388.91 354.81 388.32C353.62 384.21 351.91 380.26 350.94 376.1C346.65 357.63 357.35 337.52 350.79 319.73C349.48 316.17 347.29 312.67 343.84 311.11C342.412 310.533 340.917 310.137 339.39 309.93C335.13 309.16 326.65 305.87 322.53 307.19C321.01 307.68 320.41 309.11 319.15 309.97C317.24 311.2 314.7 311.65 313.11 313.26Z" fill="#2EB6E9"/>
<path d="M563.6 349.66H356.54C352.138 349.66 348.57 353.228 348.57 357.63V483.69C348.57 488.092 352.138 491.66 356.54 491.66H563.6C568.002 491.66 571.57 488.092 571.57 483.69V357.63C571.57 353.228 568.002 349.66 563.6 349.66Z" fill="#3F3D56"/>
<path d="M459.57 426.66C462.884 426.66 465.57 423.974 465.57 420.66C465.57 417.346 462.884 414.66 459.57 414.66C456.256 414.66 453.57 417.346 453.57 420.66C453.57 423.974 456.256 426.66 459.57 426.66Z" fill="white"/>
<path d="M378.29 136.5C374.93 138.93 372.63 142.42 370.29 145.77C365.98 151.96 361.1 158.14 354.21 161.59C351.6 162.9 348.62 163.89 346.89 166.17C345.863 167.712 345.197 169.465 344.94 171.3C343.62 177.751 342.93 184.315 342.88 190.9C342.88 194.18 343.02 197.56 344.47 200.54C345.84 203.34 348.31 205.71 348.82 208.76C349.21 211.14 348.33 213.51 348.02 215.9C347.71 218.29 348.25 221.12 350.46 222.26C351.651 222.708 352.894 223 354.16 223.13C360.81 224.61 363.04 232.41 364.05 238.86C366.31 238.73 367.33 236.14 367.8 234.03L374.73 203.22C375.48 199.88 376.73 196.01 380.06 194.84C382.29 194.07 384.73 194.79 387.06 194.99C396.21 195.74 403.95 188.67 412.9 186.72C415.765 186.142 418.694 185.947 421.61 186.14C428.67 186.49 436.88 189.39 438.38 195.98C438.63 197.05 438.78 198.33 439.78 198.86C440.78 199.39 441.83 198.94 442.88 198.86C447.36 198.41 450 203.45 451.29 207.57L455.99 222.57C456.69 224.84 457.87 227.51 460.33 227.8C462.6 228.08 464.53 225.93 464.87 223.8C465.21 221.67 464.47 219.46 463.98 217.32C461.77 207.47 465.15 197.39 467.21 187.52C469.27 177.65 469.64 166.31 462.73 158.71C460.22 155.96 456.92 153.91 454.58 151.01C452.4 148.29 451.17 144.95 448.91 142.28C442.66 134.91 426.63 129.22 416.8 128.28C405.57 127.06 387.37 129.91 378.29 136.5Z" fill="#3F3D56"/>
<g opacity="0.1">
<path opacity="0.1" d="M460.37 220.8C457.91 220.5 456.73 217.8 456.03 215.57C454.463 210.563 452.897 205.563 451.33 200.57C450.04 196.44 447.4 191.4 442.92 191.86C441.87 191.97 440.74 192.38 439.82 191.86C438.9 191.34 438.67 190.05 438.42 188.98C436.92 182.38 428.71 179.49 421.65 179.14C418.734 178.949 415.806 179.14 412.94 179.71C403.99 181.71 396.25 188.71 387.1 187.98C384.74 187.79 382.3 187.07 380.1 187.84C376.73 189 375.52 192.84 374.77 196.22L367.84 227.02C367.37 229.14 366.35 231.73 364.09 231.85C363.09 225.41 360.85 217.61 354.2 216.13C352.936 215.991 351.694 215.699 350.5 215.26C349.63 214.785 348.949 214.026 348.57 213.11C348.39 214.04 348.18 214.97 348.06 215.9C347.76 218.28 348.29 221.12 350.5 222.26C351.691 222.708 352.934 223 354.2 223.13C360.85 224.61 363.08 232.41 364.09 238.86C366.35 238.73 367.37 236.14 367.84 234.03L374.77 203.22C375.52 199.88 376.77 196.01 380.1 194.84C382.33 194.07 384.77 194.79 387.1 194.99C396.25 195.74 403.99 188.67 412.94 186.72C415.805 186.142 418.734 185.947 421.65 186.14C428.71 186.49 436.92 189.39 438.42 195.98C438.67 197.05 438.82 198.33 439.82 198.86C440.82 199.39 441.87 198.94 442.92 198.86C447.4 198.41 450.04 203.45 451.33 207.57C452.89 212.577 454.457 217.577 456.03 222.57C456.73 224.84 457.91 227.51 460.37 227.8C462.64 228.08 464.57 225.93 464.91 223.8C465.064 222.008 464.86 220.203 464.31 218.49C463.953 219.22 463.389 219.828 462.688 220.239C461.988 220.65 461.181 220.845 460.37 220.8V220.8Z" fill="black"/>
<path opacity="0.1" d="M348.83 201.76C348.32 198.71 345.83 196.34 344.48 193.54C343.612 191.651 343.11 189.616 343 187.54C343 188.66 342.9 189.78 342.89 190.91C342.89 194.19 343.03 197.57 344.48 200.55C345.59 202.82 347.42 204.82 348.34 207.13C348.825 205.384 348.991 203.565 348.83 201.76V201.76Z" fill="black"/>
<path opacity="0.1" d="M467.25 180.48C465.43 189.2 462.59 198.08 463.47 206.82C464.04 200.37 465.92 193.88 467.25 187.48C468.359 182.62 468.75 177.623 468.41 172.65C468.193 175.282 467.805 177.898 467.25 180.48Z" fill="black"/>
</g>
</svg>
