<svg width="197" height="172" viewBox="0 0 197 172" fill="none" xmlns="http://www.w3.org/2000/svg">
<path d="M71.4679 34.792L72.9079 28.744C84.8119 27.784 96.9079 25.768 109.196 22.696C105.548 31.912 101.996 43.72 98.5399 58.12L89.0359 97.288C82.8919 124.936 75.4039 146.056 66.5719 160.648C75.5959 162.184 83.8519 162.952 91.3399 162.952C108.236 162.952 122.732 158.92 134.828 150.856C147.116 142.6 156.14 131.944 161.9 118.888C167.852 105.832 170.828 92.68 170.828 79.432C170.828 58.312 164.492 41.512 151.82 29.032C139.34 16.36 123.596 10.024 104.588 10.024C87.8839 10.024 72.2359 13.96 57.6439 21.832C43.0519 29.512 31.4359 39.784 22.7959 52.648C14.1559 65.512 9.83588 78.376 9.83588 91.24C9.83588 102.952 15.1159 111.688 25.6759 117.448C30.4759 120.328 32.8759 123.304 32.8759 126.376C32.8759 128.296 32.0119 130.216 30.2839 132.136C28.5559 134.056 26.4439 135.016 23.9479 135.016C18.3799 135.016 13.0039 130.888 7.81988 122.632C2.63588 114.184 0.0438766 105.64 0.0438766 97C0.0438766 81.256 4.84388 65.704 14.4439 50.344C24.2359 34.984 37.7719 22.888 55.0519 14.056C72.5239 5.22399 91.5319 0.807985 112.076 0.807985C137.228 0.807985 157.58 7.62399 173.132 21.256C188.876 34.888 196.748 52.36 196.748 73.672C196.748 98.44 187.82 120.904 169.964 141.064C152.108 161.224 128.204 171.304 98.2519 171.304C91.3399 171.304 83.3719 170.92 74.3479 170.152C65.3239 169.384 54.9559 169 43.2439 169C36.9079 169 30.1879 169.096 23.0839 169.288L26.5399 162.376C36.3319 161.992 43.2439 159.496 47.2759 154.888C51.4999 150.088 55.4359 140.776 59.0839 126.952L80.1079 45.16C80.6839 43.048 80.9719 41.32 80.9719 39.976C80.9719 35.752 77.8039 34.024 71.4679 34.792Z" fill="#3C4C63"/>
</svg>
