<svg viewBox="0 0 266 165" fill="none" xmlns="http://www.w3.org/2000/svg">
<path d="M28.7662 101.464C27.9331 101.46 27.1227 101.192 26.4522 100.697L20.8758 96.6459C20.4131 96.3081 19.855 96.126 19.2821 96.126C18.7092 96.126 18.1511 96.3081 17.6884 96.6459L12.112 100.697C11.4395 101.186 10.6295 101.449 9.79824 101.449C8.96696 101.449 8.15699 101.186 7.48443 100.698C6.81187 100.209 6.31125 99.52 6.05429 98.7294C5.79732 97.9389 5.7972 97.0872 6.05398 96.2966L8.18408 89.7413C8.36215 89.1967 8.36273 88.6096 8.18573 88.0647C8.00873 87.5198 7.66328 87.0451 7.19918 86.7091L1.62277 82.6577C0.950212 82.1691 0.449588 81.4801 0.192684 80.6895C-0.06422 79.8989 -0.0642257 79.0472 0.192653 78.2566C0.449532 77.466 0.950136 76.777 1.62268 76.2883C2.29522 75.7997 3.10518 75.5366 3.93649 75.5366H10.8295C11.4023 75.5376 11.9607 75.3567 12.4241 75.02C12.8876 74.6833 13.2322 74.2082 13.4082 73.6631L15.538 67.1077C15.7948 66.317 16.2954 65.6279 16.968 65.1392C17.6406 64.6505 18.4507 64.3873 19.2821 64.3873C20.1135 64.3873 20.9235 64.6505 21.5961 65.1392C22.2687 65.6279 22.7693 66.317 23.0261 67.1077L25.1559 73.6631C25.332 74.2082 25.6765 74.6833 26.14 75.02C26.6034 75.3567 27.1618 75.5376 27.7346 75.5366H34.6276C35.4589 75.5366 36.2689 75.7998 36.9414 76.2884C37.6139 76.777 38.1145 77.466 38.3713 78.2567C38.6282 79.0473 38.6282 79.8989 38.3713 80.6895C38.1145 81.4801 37.6139 82.1691 36.9413 82.6577L31.3649 86.7091C30.9008 87.0451 30.5554 87.5198 30.3784 88.0647C30.2014 88.6096 30.202 89.1967 30.38 89.7413L32.5101 96.2966C32.7764 97.0864 32.7811 97.941 32.5234 98.7337C32.2658 99.5264 31.7596 100.215 31.0799 100.697C30.4095 101.192 29.5992 101.46 28.7662 101.464V101.464Z" fill="#0AAAE6"/>
<path d="M85.2746 101.464C84.4415 101.46 83.6311 101.192 82.9606 100.697L77.3842 96.6459C76.9216 96.3081 76.3635 96.126 75.7905 96.126C75.2176 96.126 74.6596 96.3081 74.1969 96.6459L68.6204 100.697C67.9479 101.186 67.138 101.449 66.3067 101.449C65.4754 101.449 64.6654 101.186 63.9929 100.698C63.3203 100.209 62.8197 99.52 62.5627 98.7294C62.3058 97.9389 62.3057 97.0872 62.5625 96.2966L64.6925 89.7413C64.8706 89.1967 64.8712 88.6096 64.6942 88.0647C64.5172 87.5198 64.1717 87.0451 63.7077 86.7091L58.1312 82.6577C57.4587 82.169 56.9582 81.4801 56.7013 80.6895C56.4445 79.8988 56.4445 79.0472 56.7014 78.2566C56.9583 77.466 57.4589 76.777 58.1315 76.2884C58.804 75.7998 59.6139 75.5366 60.4452 75.5366H67.3379C67.9107 75.5376 68.4691 75.3567 68.9326 75.02C69.396 74.6833 69.7406 74.2082 69.9166 73.6631L72.0467 67.1077C72.3035 66.317 72.8041 65.6279 73.4766 65.1392C74.1492 64.6505 74.9593 64.3873 75.7906 64.3873C76.622 64.3873 77.432 64.6505 78.1046 65.1392C78.7772 65.6279 79.2777 66.317 79.5346 67.1077L81.6644 73.6631C81.8405 74.2082 82.1851 74.6833 82.6486 75.02C83.1121 75.3567 83.6705 75.5376 84.2434 75.5366H91.1361C91.9674 75.5366 92.7773 75.7998 93.4498 76.2884C94.1223 76.777 94.6229 77.466 94.8798 78.2566C95.1367 79.0472 95.1368 79.8988 94.8799 80.6895C94.6231 81.4801 94.1225 82.169 93.4501 82.6577L87.8736 86.7091C87.4094 87.045 87.0639 87.5197 86.8869 88.0646C86.7098 88.6096 86.7104 89.1967 86.8884 89.7413L89.0185 96.2966C89.2848 97.0864 89.2895 97.941 89.0318 98.7337C88.7742 99.5264 88.268 100.215 87.5883 100.697C86.918 101.192 86.1076 101.46 85.2746 101.464V101.464Z" fill="#0AAAE6"/>
<path d="M141.783 101.464C140.95 101.46 140.14 101.192 139.469 100.697L133.893 96.6459C133.43 96.3089 132.872 96.1273 132.299 96.1273C131.726 96.1273 131.168 96.3089 130.705 96.6459L125.129 100.697C124.456 101.186 123.646 101.449 122.815 101.449C121.984 101.449 121.174 101.186 120.501 100.698C119.829 100.209 119.328 99.5199 119.071 98.7294C118.814 97.9388 118.814 97.0872 119.071 96.2966L121.201 89.7413C121.379 89.1967 121.38 88.6096 121.203 88.0647C121.026 87.5198 120.68 87.0451 120.216 86.7091L114.64 82.6577C113.967 82.169 113.467 81.4801 113.21 80.6895C112.953 79.8988 112.953 79.0472 113.21 78.2566C113.467 77.466 113.967 76.777 114.64 76.2884C115.312 75.7998 116.122 75.5366 116.954 75.5366H123.846C124.419 75.5376 124.978 75.3567 125.441 75.02C125.904 74.6833 126.249 74.2082 126.425 73.6631L128.555 67.1077C128.812 66.317 129.313 65.6279 129.985 65.1392C130.658 64.6505 131.468 64.3873 132.299 64.3873C133.13 64.3873 133.94 64.6505 134.613 65.1392C135.286 65.6279 135.786 66.317 136.043 67.1077L138.173 73.6631C138.349 74.2082 138.694 74.6833 139.157 75.02C139.621 75.3567 140.179 75.5376 140.752 75.5366H147.644C148.476 75.5366 149.286 75.7998 149.958 76.2884C150.631 76.777 151.131 77.466 151.388 78.2566C151.645 79.0472 151.645 79.8988 151.388 80.6895C151.131 81.4801 150.631 82.169 149.958 82.6577L144.382 86.7091C143.918 87.0451 143.573 87.5198 143.396 88.0647C143.219 88.6096 143.219 89.1967 143.397 89.7413L145.527 96.2966C145.793 97.0864 145.798 97.9409 145.54 98.7336C145.283 99.5263 144.777 100.215 144.097 100.697C143.427 101.192 142.616 101.46 141.783 101.464V101.464Z" fill="#0AAAE6"/>
<path d="M198.292 101.464C197.459 101.46 196.648 101.192 195.978 100.697L190.401 96.6459C189.939 96.3081 189.381 96.126 188.808 96.126C188.235 96.126 187.677 96.3081 187.214 96.6459L181.637 100.697C180.965 101.186 180.155 101.449 179.324 101.449C178.492 101.449 177.682 101.186 177.01 100.698C176.337 100.209 175.837 99.52 175.58 98.7294C175.323 97.9389 175.323 97.0873 175.579 96.2966L177.71 89.7413C177.888 89.1968 177.888 88.6097 177.711 88.0649C177.534 87.52 177.189 87.0455 176.724 86.7098L171.148 82.6578C170.475 82.1691 169.975 81.4801 169.718 80.6895C169.461 79.8988 169.461 79.0472 169.718 78.2566C169.975 77.466 170.476 76.777 171.148 76.2884C171.821 75.7998 172.631 75.5366 173.462 75.5366H180.355C180.928 75.5376 181.486 75.3568 181.949 75.0201C182.413 74.6834 182.758 74.2082 182.934 73.6631L185.063 67.1078C185.32 66.3171 185.821 65.6279 186.493 65.1392C187.166 64.6505 187.976 64.3873 188.807 64.3873C189.639 64.3873 190.449 64.6505 191.121 65.1392C191.794 65.6279 192.294 66.3171 192.551 67.1078L194.681 73.6631C194.857 74.2082 195.202 74.6834 195.665 75.0201C196.129 75.3568 196.687 75.5376 197.26 75.5366H204.153C204.984 75.5366 205.794 75.7998 206.467 76.2884C207.139 76.777 207.64 77.466 207.897 78.2566C208.153 79.0472 208.153 79.8988 207.897 80.6895C207.64 81.4801 207.139 82.1691 206.467 82.6578L200.89 86.7092C200.426 87.0452 200.081 87.5198 199.904 88.0648C199.727 88.6097 199.727 89.1967 199.905 89.7413L202.036 96.2966C202.302 97.0864 202.307 97.941 202.049 98.7337C201.791 99.5264 201.285 100.215 200.605 100.697C199.935 101.192 199.125 101.46 198.292 101.464V101.464Z" fill="#0AAAE6"/>
<path d="M235.832 101.852C234.917 101.848 234.027 101.554 233.291 101.011C232.544 100.481 231.988 99.7247 231.705 98.8538C231.422 97.9829 231.427 97.044 231.719 96.1763L233.85 89.6211C234.002 89.1544 234.003 88.6514 233.851 88.1845C233.699 87.7176 233.403 87.3108 233.006 87.0229L227.429 82.9712C226.69 82.4345 226.14 81.6776 225.858 80.8091C225.576 79.9407 225.576 79.0051 225.858 78.1367C226.14 77.2682 226.69 76.5114 227.429 75.9747C228.168 75.4379 229.057 75.1489 229.971 75.1489H236.863C237.354 75.1498 237.833 74.9948 238.23 74.7062C238.627 74.4175 238.923 74.0102 239.073 73.543L241.204 66.9878C241.486 66.1193 242.036 65.3625 242.775 64.8258C243.513 64.2891 244.403 64 245.316 64C246.229 64 247.119 64.2891 247.858 64.8258C248.597 65.3625 249.147 66.1193 249.429 66.9878L251.559 73.543C251.709 74.0102 252.005 74.4176 252.402 74.7062C252.799 74.9948 253.278 75.1498 253.769 75.1489H260.662C261.575 75.149 262.464 75.4381 263.203 75.9748C263.942 76.5115 264.492 77.2683 264.774 78.1368C265.056 79.0052 265.056 79.9407 264.774 80.8091C264.492 81.6776 263.942 82.4344 263.203 82.9712L257.627 87.0229C257.229 87.3107 256.933 87.7174 256.781 88.1844C256.629 88.6513 256.63 89.1544 256.782 89.6211L258.913 96.1763C259.195 97.0447 259.195 97.9803 258.912 98.8488C258.63 99.7172 258.08 100.474 257.342 101.011C256.603 101.547 255.713 101.837 254.8 101.837C253.887 101.837 252.997 101.547 252.258 101.011L246.682 96.9595C246.285 96.6701 245.807 96.5142 245.316 96.5142C244.825 96.5142 244.347 96.6701 243.95 96.9595L238.374 101.011C237.637 101.554 236.747 101.849 235.832 101.852V101.852ZM245.316 94.5132C246.229 94.5134 247.119 94.8033 247.857 95.3414L253.434 99.3926C253.831 99.6813 254.309 99.8368 254.8 99.8369C255.291 99.8369 255.769 99.6816 256.166 99.3931C256.563 99.1046 256.859 98.6978 257.01 98.231C257.162 97.7641 257.162 97.2613 257.01 96.7945L254.88 90.2393C254.596 89.371 254.596 88.4349 254.878 87.566C255.16 86.6972 255.711 85.9404 256.451 85.4048L262.027 81.3531C262.425 81.0646 262.72 80.6579 262.872 80.1911C263.023 79.7244 263.023 79.2216 262.872 78.7548C262.72 78.2881 262.425 77.8813 262.027 77.5928C261.63 77.3044 261.152 77.149 260.662 77.149H253.769C252.855 77.1507 251.965 76.8622 251.226 76.3253C250.487 75.7883 249.937 75.0305 249.656 74.1612L247.526 67.606C247.375 67.1392 247.079 66.7324 246.682 66.4438C246.285 66.1553 245.807 65.9999 245.316 65.9999C244.825 65.9999 244.347 66.1553 243.95 66.4438C243.553 66.7324 243.257 67.1392 243.106 67.606L240.975 74.1612C240.695 75.0305 240.145 75.7883 239.406 76.3253C238.667 76.8623 237.777 77.1507 236.863 77.149H229.971C229.48 77.149 229.002 77.3043 228.605 77.5928C228.207 77.8812 227.912 78.2879 227.76 78.7547C227.609 79.2215 227.608 79.7243 227.76 80.191C227.912 80.6578 228.207 81.0646 228.604 81.3531L234.181 85.4048C234.921 85.9405 235.472 86.6973 235.754 87.5661C236.036 88.4349 236.036 89.371 235.752 90.2393L233.621 96.7945C233.47 97.2613 233.47 97.7641 233.621 98.2308C233.773 98.6976 234.069 99.1044 234.466 99.3928C234.863 99.6813 235.341 99.8366 235.832 99.8365C236.323 99.8365 236.801 99.6811 237.198 99.3926L242.775 95.3414C243.513 94.8034 244.403 94.5134 245.316 94.5132V94.5132Z" fill="#3F3D56"/>
<path d="M28.7662 164.464C27.9331 164.46 27.1227 164.192 26.4522 163.697L20.8758 159.646C20.4131 159.308 19.855 159.126 19.2821 159.126C18.7092 159.126 18.1511 159.308 17.6884 159.646L12.112 163.697C11.4395 164.186 10.6295 164.449 9.79824 164.449C8.96696 164.449 8.15699 164.186 7.48443 163.698C6.81187 163.209 6.31125 162.52 6.05429 161.729C5.79732 160.939 5.7972 160.087 6.05398 159.297L8.18408 152.741C8.36215 152.197 8.36273 151.61 8.18573 151.065C8.00873 150.52 7.66328 150.045 7.19918 149.709L1.62277 145.658C0.950212 145.169 0.449588 144.48 0.192684 143.69C-0.06422 142.899 -0.0642257 142.047 0.192653 141.257C0.449532 140.466 0.950136 139.777 1.62268 139.288C2.29522 138.8 3.10518 138.537 3.93649 138.537H10.8295C11.4023 138.538 11.9607 138.357 12.4241 138.02C12.8876 137.683 13.2322 137.208 13.4082 136.663L15.538 130.108C15.7948 129.317 16.2954 128.628 16.968 128.139C17.6406 127.651 18.4507 127.387 19.2821 127.387C20.1135 127.387 20.9235 127.651 21.5961 128.139C22.2687 128.628 22.7693 129.317 23.0261 130.108L25.1559 136.663C25.332 137.208 25.6765 137.683 26.14 138.02C26.6034 138.357 27.1618 138.538 27.7346 138.537H34.6276C35.4589 138.537 36.2689 138.8 36.9414 139.288C37.6139 139.777 38.1145 140.466 38.3713 141.257C38.6282 142.047 38.6282 142.899 38.3713 143.69C38.1145 144.48 37.6139 145.169 36.9413 145.658L31.3649 149.709C30.9008 150.045 30.5554 150.52 30.3784 151.065C30.2014 151.61 30.202 152.197 30.38 152.741L32.5101 159.297C32.7764 160.086 32.7811 160.941 32.5234 161.734C32.2658 162.526 31.7596 163.215 31.0799 163.697C30.4095 164.192 29.5992 164.46 28.7662 164.464V164.464Z" fill="#0AAAE6"/>
<path d="M85.2746 164.464C84.4415 164.46 83.6311 164.192 82.9606 163.697L77.3842 159.646C76.9216 159.308 76.3635 159.126 75.7905 159.126C75.2176 159.126 74.6596 159.308 74.1969 159.646L68.6204 163.697C67.9479 164.186 67.138 164.449 66.3067 164.449C65.4754 164.449 64.6654 164.186 63.9929 163.698C63.3203 163.209 62.8197 162.52 62.5627 161.729C62.3058 160.939 62.3057 160.087 62.5625 159.297L64.6925 152.741C64.8706 152.197 64.8712 151.61 64.6942 151.065C64.5172 150.52 64.1717 150.045 63.7077 149.709L58.1312 145.658C57.4587 145.169 56.9582 144.48 56.7013 143.689C56.4445 142.899 56.4445 142.047 56.7014 141.257C56.9583 140.466 57.4589 139.777 58.1315 139.288C58.804 138.8 59.6139 138.537 60.4452 138.537H67.3379C67.9107 138.538 68.4691 138.357 68.9326 138.02C69.396 137.683 69.7406 137.208 69.9166 136.663L72.0467 130.108C72.3035 129.317 72.8041 128.628 73.4766 128.139C74.1492 127.651 74.9593 127.387 75.7906 127.387C76.622 127.387 77.432 127.651 78.1046 128.139C78.7772 128.628 79.2777 129.317 79.5346 130.108L81.6644 136.663C81.8405 137.208 82.1851 137.683 82.6486 138.02C83.1121 138.357 83.6705 138.538 84.2434 138.537H91.1361C91.9674 138.537 92.7773 138.8 93.4498 139.288C94.1223 139.777 94.6229 140.466 94.8798 141.257C95.1367 142.047 95.1368 142.899 94.8799 143.689C94.6231 144.48 94.1225 145.169 93.4501 145.658L87.8736 149.709C87.4094 150.045 87.0639 150.52 86.8869 151.065C86.7098 151.61 86.7104 152.197 86.8884 152.741L89.0185 159.297C89.2848 160.086 89.2895 160.941 89.0318 161.734C88.7742 162.526 88.268 163.215 87.5883 163.697C86.918 164.192 86.1076 164.46 85.2746 164.464V164.464Z" fill="#0AAAE6"/>
<path d="M141.783 164.464C140.95 164.46 140.14 164.192 139.469 163.697L133.893 159.646C133.43 159.309 132.872 159.127 132.299 159.127C131.726 159.127 131.168 159.309 130.705 159.646L125.129 163.697C124.456 164.186 123.646 164.449 122.815 164.449C121.984 164.449 121.174 164.186 120.501 163.698C119.829 163.209 119.328 162.52 119.071 161.729C118.814 160.939 118.814 160.087 119.071 159.297L121.201 152.741C121.379 152.197 121.38 151.61 121.203 151.065C121.026 150.52 120.68 150.045 120.216 149.709L114.64 145.658C113.967 145.169 113.467 144.48 113.21 143.689C112.953 142.899 112.953 142.047 113.21 141.257C113.467 140.466 113.967 139.777 114.64 139.288C115.312 138.8 116.122 138.537 116.954 138.537H123.846C124.419 138.538 124.978 138.357 125.441 138.02C125.904 137.683 126.249 137.208 126.425 136.663L128.555 130.108C128.812 129.317 129.313 128.628 129.985 128.139C130.658 127.651 131.468 127.387 132.299 127.387C133.13 127.387 133.94 127.651 134.613 128.139C135.286 128.628 135.786 129.317 136.043 130.108L138.173 136.663C138.349 137.208 138.694 137.683 139.157 138.02C139.621 138.357 140.179 138.538 140.752 138.537H147.644C148.476 138.537 149.286 138.8 149.958 139.288C150.631 139.777 151.131 140.466 151.388 141.257C151.645 142.047 151.645 142.899 151.388 143.689C151.131 144.48 150.631 145.169 149.958 145.658L144.382 149.709C143.918 150.045 143.573 150.52 143.396 151.065C143.219 151.61 143.219 152.197 143.397 152.741L145.527 159.297C145.793 160.086 145.798 160.941 145.54 161.734C145.283 162.526 144.777 163.215 144.097 163.697C143.427 164.192 142.616 164.46 141.783 164.464V164.464Z" fill="#0AAAE6"/>
<path d="M198.292 164.464C197.459 164.46 196.648 164.192 195.978 163.697L190.401 159.646C189.939 159.308 189.381 159.126 188.808 159.126C188.235 159.126 187.677 159.308 187.214 159.646L181.637 163.697C180.965 164.186 180.155 164.449 179.324 164.449C178.492 164.449 177.682 164.186 177.01 163.698C176.337 163.209 175.837 162.52 175.58 161.729C175.323 160.939 175.323 160.087 175.579 159.297L177.71 152.741C177.888 152.197 177.888 151.61 177.711 151.065C177.534 150.52 177.189 150.046 176.724 149.71L171.148 145.658C170.475 145.169 169.975 144.48 169.718 143.689C169.461 142.899 169.461 142.047 169.718 141.257C169.975 140.466 170.476 139.777 171.148 139.288C171.821 138.8 172.631 138.537 173.462 138.537H180.355C180.928 138.538 181.486 138.357 181.949 138.02C182.413 137.683 182.758 137.208 182.934 136.663L185.063 130.108C185.32 129.317 185.821 128.628 186.493 128.139C187.166 127.651 187.976 127.387 188.807 127.387C189.639 127.387 190.449 127.651 191.121 128.139C191.794 128.628 192.294 129.317 192.551 130.108L194.681 136.663C194.857 137.208 195.202 137.683 195.665 138.02C196.129 138.357 196.687 138.538 197.26 138.537H204.153C204.984 138.537 205.794 138.8 206.467 139.288C207.139 139.777 207.64 140.466 207.897 141.257C208.153 142.047 208.153 142.899 207.897 143.689C207.64 144.48 207.139 145.169 206.467 145.658L200.89 149.709C200.426 150.045 200.081 150.52 199.904 151.065C199.727 151.61 199.727 152.197 199.905 152.741L202.036 159.297C202.302 160.086 202.307 160.941 202.049 161.734C201.791 162.526 201.285 163.215 200.605 163.697C199.935 164.192 199.125 164.46 198.292 164.464V164.464Z" fill="#0AAAE6"/>
<path d="M235.832 164.852C234.917 164.848 234.027 164.554 233.291 164.011C232.544 163.481 231.988 162.725 231.705 161.854C231.422 160.983 231.427 160.044 231.719 159.176L233.85 152.621C234.002 152.154 234.003 151.651 233.851 151.185C233.699 150.718 233.403 150.311 233.006 150.023L227.429 145.971C226.69 145.434 226.14 144.678 225.858 143.809C225.576 142.941 225.576 142.005 225.858 141.137C226.14 140.268 226.69 139.511 227.429 138.975C228.168 138.438 229.057 138.149 229.971 138.149H236.863C237.354 138.15 237.833 137.995 238.23 137.706C238.627 137.418 238.923 137.01 239.073 136.543L241.204 129.988C241.486 129.119 242.036 128.363 242.775 127.826C243.513 127.289 244.403 127 245.316 127C246.229 127 247.119 127.289 247.858 127.826C248.597 128.363 249.147 129.119 249.429 129.988L251.559 136.543C251.709 137.01 252.005 137.418 252.402 137.706C252.799 137.995 253.278 138.15 253.769 138.149H260.662C261.575 138.149 262.464 138.438 263.203 138.975C263.942 139.512 264.492 140.268 264.774 141.137C265.056 142.005 265.056 142.941 264.774 143.809C264.492 144.678 263.942 145.434 263.203 145.971L257.627 150.023C257.229 150.311 256.933 150.717 256.781 151.184C256.629 151.651 256.63 152.154 256.782 152.621L258.913 159.176C259.195 160.045 259.195 160.98 258.912 161.849C258.63 162.717 258.08 163.474 257.342 164.011C256.603 164.547 255.713 164.837 254.8 164.837C253.887 164.837 252.997 164.547 252.258 164.011L246.682 159.959C246.285 159.67 245.807 159.514 245.316 159.514C244.825 159.514 244.347 159.67 243.95 159.959L238.374 164.011C237.637 164.554 236.747 164.849 235.832 164.852V164.852ZM245.316 157.513C246.229 157.513 247.119 157.803 247.857 158.341L253.434 162.393C253.831 162.681 254.309 162.837 254.8 162.837C255.291 162.837 255.769 162.682 256.166 162.393C256.563 162.105 256.859 161.698 257.01 161.231C257.162 160.764 257.162 160.261 257.01 159.794L254.88 153.239C254.596 152.371 254.596 151.435 254.878 150.566C255.16 149.697 255.711 148.94 256.451 148.405L262.027 144.353C262.425 144.065 262.72 143.658 262.872 143.191C263.023 142.724 263.023 142.222 262.872 141.755C262.72 141.288 262.425 140.881 262.027 140.593C261.63 140.304 261.152 140.149 260.662 140.149H253.769C252.855 140.151 251.965 139.862 251.226 139.325C250.487 138.788 249.937 138.031 249.656 137.161L247.526 130.606C247.375 130.139 247.079 129.732 246.682 129.444C246.285 129.155 245.807 129 245.316 129C244.825 129 244.347 129.155 243.95 129.444C243.553 129.732 243.257 130.139 243.106 130.606L240.975 137.161C240.695 138.031 240.145 138.788 239.406 139.325C238.667 139.862 237.777 140.151 236.863 140.149H229.971C229.48 140.149 229.002 140.304 228.605 140.593C228.207 140.881 227.912 141.288 227.76 141.755C227.609 142.221 227.608 142.724 227.76 143.191C227.912 143.658 228.207 144.065 228.604 144.353L234.181 148.405C234.921 148.941 235.472 149.697 235.754 150.566C236.036 151.435 236.036 152.371 235.752 153.239L233.621 159.794C233.47 160.261 233.47 160.764 233.621 161.231C233.773 161.698 234.069 162.104 234.466 162.393C234.863 162.681 235.341 162.837 235.832 162.837C236.323 162.837 236.801 162.681 237.198 162.393L242.775 158.341C243.513 157.803 244.403 157.513 245.316 157.513V157.513Z" fill="#3F3D56"/>
<path d="M28.9751 38.4752C28.142 38.4719 27.3316 38.2035 26.6611 37.709L21.0847 33.6576C20.622 33.3197 20.0639 33.1376 19.491 33.1376C18.9181 33.1376 18.36 33.3197 17.8973 33.6576L12.3209 37.709C11.6484 38.1976 10.8385 38.4608 10.0072 38.4608C9.17588 38.4608 8.36592 38.1977 7.69336 37.7092C7.02079 37.2206 6.52017 36.5317 6.26321 35.7411C6.00625 34.9505 6.00613 34.0989 6.2629 33.3082L8.393 26.7529C8.57107 26.2083 8.57165 25.6213 8.39465 25.0764C8.21765 24.5314 7.8722 24.0568 7.40811 23.7208L1.83169 19.6694C1.15914 19.1808 0.658511 18.4918 0.401607 17.7012C0.144703 16.9106 0.144698 16.0589 0.401577 15.2683C0.658456 14.4777 1.15906 13.7886 1.8316 13.3C2.50414 12.8114 3.3141 12.5482 4.14541 12.5482H11.0384C11.6113 12.5492 12.1696 12.3684 12.6331 12.0317C13.0965 11.695 13.4411 11.2199 13.6171 10.6747L15.7469 4.11938C16.0037 3.32866 16.5043 2.63959 17.1769 2.15088C17.8495 1.66217 18.6596 1.39893 19.491 1.39893C20.3224 1.39893 21.1324 1.66217 21.805 2.15088C22.4776 2.63959 22.9782 3.32866 23.2351 4.11938L25.3648 10.6747C25.5409 11.2199 25.8855 11.695 26.3489 12.0317C26.8123 12.3684 27.3707 12.5492 27.9436 12.5482H34.8365C35.6678 12.5482 36.4778 12.8114 37.1503 13.3C37.8228 13.7887 38.3234 14.4777 38.5803 15.2683C38.8371 16.0589 38.8371 16.9106 38.5803 17.7012C38.3234 18.4918 37.8228 19.1808 37.1503 19.6694L31.5738 23.7208C31.1098 24.0568 30.7643 24.5314 30.5873 25.0764C30.4103 25.6213 30.4109 26.2083 30.589 26.7529L32.719 33.3082C32.9853 34.098 32.99 34.9526 32.7324 35.7453C32.4747 36.538 31.9685 37.2266 31.2888 37.709C30.6185 38.2035 29.8081 38.4718 28.9751 38.4752Z" fill="#0AAAE6"/>
<path d="M85.4836 38.4752C84.6505 38.4719 83.84 38.2035 83.1696 37.709L77.5932 33.6576C77.1305 33.3197 76.5724 33.1376 75.9995 33.1376C75.4266 33.1376 74.8685 33.3197 74.4058 33.6576L68.8294 37.709C68.1568 38.1976 67.3469 38.4608 66.5156 38.4608C65.6843 38.4609 64.8744 38.1977 64.2018 37.7092C63.5292 37.2206 63.0286 36.5317 62.7716 35.7411C62.5147 34.9505 62.5146 34.0989 62.7714 33.3082L64.9014 26.7529C65.0795 26.2083 65.0801 25.6213 64.9031 25.0764C64.7261 24.5314 64.3807 24.0568 63.9166 23.7208L58.3401 19.6694C57.6676 19.1807 57.1671 18.4917 56.9103 17.7011C56.6534 16.9105 56.6535 16.0588 56.9104 15.2682C57.1673 14.4776 57.6678 13.7886 58.3404 13.3C59.0129 12.8114 59.8228 12.5482 60.6541 12.5482H67.5468C68.1197 12.5492 68.6781 12.3684 69.1415 12.0317C69.6049 11.695 69.9495 11.2199 70.1255 10.6747L72.2556 4.11938C72.5124 3.32867 73.013 2.63956 73.6856 2.15085C74.3581 1.66214 75.1682 1.39893 75.9996 1.39893C76.8309 1.39893 77.641 1.66214 78.3135 2.15085C78.9861 2.63956 79.4867 3.32867 79.7435 4.11938L81.8733 10.6747C82.0494 11.2199 82.394 11.695 82.8575 12.0317C83.321 12.3684 83.8794 12.5492 84.4523 12.5482H91.345C92.1763 12.5482 92.9862 12.8114 93.6587 13.3C94.3313 13.7886 94.8319 14.4776 95.0888 15.2682C95.3457 16.0588 95.3457 16.9105 95.0888 17.7011C94.832 18.4917 94.3315 19.1807 93.659 19.6694L88.0825 23.7208C87.6183 24.0567 87.2728 24.5314 87.0958 25.0763C86.9187 25.6212 86.9193 26.2083 87.0974 26.7529L89.2274 33.3082C89.4937 34.098 89.4984 34.9526 89.2408 35.7453C88.9831 36.538 88.477 37.2266 87.7972 37.709C87.1269 38.2035 86.3166 38.4718 85.4836 38.4752V38.4752Z" fill="#0AAAE6"/>
<path d="M141.992 38.4752C141.159 38.4718 140.349 38.2035 139.678 37.709L134.102 33.6576C133.639 33.3205 133.081 33.1389 132.508 33.1389C131.935 33.1389 131.377 33.3205 130.914 33.6576L125.338 37.709C124.665 38.1976 123.855 38.4608 123.024 38.4608C122.193 38.4609 121.383 38.1977 120.71 37.7092C120.038 37.2206 119.537 36.5316 119.28 35.7411C119.023 34.9505 119.023 34.0988 119.28 33.3082L121.41 26.7529C121.588 26.2083 121.589 25.6213 121.412 25.0764C121.235 24.5314 120.889 24.0568 120.425 23.7208L114.849 19.6694C114.176 19.1807 113.676 18.4917 113.419 17.7011C113.162 16.9105 113.162 16.0588 113.419 15.2682C113.676 14.4776 114.176 13.7886 114.849 13.3C115.521 12.8114 116.331 12.5482 117.163 12.5482H124.055C124.628 12.5492 125.186 12.3684 125.65 12.0317C126.113 11.695 126.458 11.2199 126.634 10.6747L128.764 4.11938C129.021 3.32867 129.521 2.63956 130.194 2.15085C130.867 1.66214 131.677 1.39893 132.508 1.39893C133.339 1.39893 134.149 1.66214 134.822 2.15085C135.495 2.63956 135.995 3.32867 136.252 4.11938L138.382 10.6747C138.558 11.2199 138.903 11.695 139.366 12.0317C139.829 12.3684 140.388 12.5492 140.961 12.5482H147.853C148.685 12.5482 149.495 12.8114 150.167 13.3C150.84 13.7886 151.34 14.4776 151.597 15.2682C151.854 16.0588 151.854 16.9105 151.597 17.7011C151.34 18.4917 150.84 19.1807 150.167 19.6694L144.591 23.7208C144.127 24.0568 143.781 24.5314 143.604 25.0764C143.427 25.6213 143.428 26.2083 143.606 26.7529L145.736 33.3082C146.002 34.098 146.007 34.9526 145.749 35.7453C145.492 36.5379 144.986 37.2265 144.306 37.709C143.635 38.2035 142.825 38.4718 141.992 38.4752V38.4752Z" fill="#0AAAE6"/>
<path d="M236.041 38.8638C235.126 38.8601 234.236 38.5656 233.5 38.0229C232.753 37.4929 232.197 36.7364 231.914 35.8655C231.631 34.9946 231.636 34.0557 231.928 33.188L234.059 26.6328C234.211 26.1661 234.212 25.6631 234.06 25.1962C233.908 24.7292 233.612 24.3225 233.214 24.0346L227.638 19.9829C226.899 19.4462 226.349 18.6893 226.067 17.8208C225.785 16.9524 225.785 16.0168 226.067 15.1483C226.349 14.2799 226.899 13.523 227.638 12.9863C228.377 12.4496 229.266 12.1606 230.18 12.1606H237.072C237.563 12.1615 238.042 12.0065 238.439 11.7178C238.836 11.4292 239.132 11.0219 239.282 10.5546L241.413 3.99942C241.695 3.13097 242.245 2.37416 242.984 1.83743C243.722 1.30071 244.612 1.01163 245.525 1.01163C246.438 1.01163 247.328 1.30071 248.067 1.83743C248.806 2.37416 249.355 3.13097 249.638 3.99942L251.768 10.5546C251.918 11.0219 252.214 11.4292 252.611 11.7178C253.008 12.0064 253.487 12.1615 253.978 12.1606H260.871C261.784 12.1606 262.673 12.4497 263.412 12.9865C264.151 13.5232 264.701 14.28 264.983 15.1484C265.265 16.0169 265.265 16.9524 264.983 17.8208C264.701 18.6893 264.151 19.4461 263.412 19.9829L257.836 24.0346C257.438 24.3224 257.142 24.7291 256.99 25.196C256.838 25.663 256.839 26.1661 256.991 26.6328L259.121 33.188C259.404 34.0564 259.404 34.9919 259.121 35.8604C258.839 36.7288 258.289 37.4857 257.55 38.0224C256.812 38.5591 255.922 38.8482 255.009 38.8482C254.096 38.8482 253.206 38.5592 252.467 38.0224L246.891 33.9712C246.494 33.6818 246.016 33.5258 245.525 33.5258C245.034 33.5258 244.556 33.6818 244.159 33.9712L238.582 38.0224C237.846 38.5656 236.956 38.8602 236.041 38.8638V38.8638ZM245.525 31.5249C246.438 31.5251 247.328 31.815 248.066 32.353L253.643 36.4043C254.04 36.6929 254.518 36.8484 255.009 36.8485C255.5 36.8486 255.978 36.6932 256.375 36.4047C256.772 36.1162 257.068 35.7094 257.219 35.2426C257.371 34.7758 257.371 34.2729 257.219 33.8062L255.089 27.251C254.805 26.3826 254.804 25.4466 255.087 24.5777C255.369 23.7088 255.92 22.9521 256.66 22.4165L262.236 18.3647C262.633 18.0763 262.929 17.6695 263.081 17.2028C263.232 16.736 263.232 16.2332 263.081 15.7665C262.929 15.2997 262.633 14.893 262.236 14.6045C261.839 14.316 261.361 14.1607 260.87 14.1606H253.978C253.064 14.1623 252.174 13.8739 251.435 13.3369C250.695 12.8 250.146 12.0422 249.865 11.1729L247.735 4.61768C247.584 4.15086 247.288 3.74405 246.891 3.45554C246.494 3.16702 246.016 3.01163 245.525 3.01163C245.034 3.01163 244.556 3.16702 244.159 3.45554C243.762 3.74405 243.466 4.15086 243.315 4.61768L241.184 11.1729C240.904 12.0422 240.354 12.8 239.615 13.337C238.876 13.874 237.986 14.1624 237.072 14.1606H230.18C229.689 14.1606 229.21 14.3159 228.813 14.6044C228.416 14.8929 228.121 15.2996 227.969 15.7664C227.817 16.2331 227.817 16.7359 227.969 17.2027C228.121 17.6695 228.416 18.0763 228.813 18.3647L234.39 22.4165C235.13 22.9522 235.681 23.709 235.963 24.5778C236.245 25.4466 236.245 26.3826 235.961 27.251L233.83 33.8062C233.679 34.2729 233.679 34.7757 233.83 35.2425C233.982 35.7092 234.278 36.116 234.675 36.4044C235.072 36.6929 235.55 36.8483 236.041 36.8482C236.532 36.8482 237.01 36.6928 237.407 36.4043L242.983 32.353C243.722 31.815 244.612 31.5251 245.525 31.5249V31.5249Z" fill="#3F3D56"/>
<path d="M179.041 38.7031C178.126 38.6994 177.236 38.405 176.5 37.8623C175.753 37.3323 175.197 36.5757 174.914 35.7048C174.631 34.8339 174.636 33.8951 174.928 33.0273L177.059 26.4721C177.211 26.0055 177.212 25.5024 177.06 25.0355C176.908 24.5686 176.612 24.1619 176.214 23.874L170.638 19.8222C169.899 19.2855 169.349 18.5287 169.067 17.6602C168.785 16.7917 168.785 15.8562 169.067 14.9877C169.349 14.1193 169.899 13.3624 170.638 12.8257C171.377 12.289 172.266 12 173.18 12H180.072C180.563 12.0009 181.042 11.8459 181.439 11.5573C181.836 11.2686 182.132 10.8613 182.282 10.394L184.413 3.83884C184.695 2.97039 185.245 2.21358 185.984 1.67685C186.722 1.14012 187.612 0.851044 188.525 0.851044C189.438 0.851044 190.328 1.14012 191.067 1.67685C191.806 2.21358 192.355 2.97039 192.638 3.83884L194.768 10.394C194.918 10.8613 195.214 11.2686 195.611 11.5572C196.008 11.8458 196.487 12.0009 196.978 12H203.871C204.784 12 205.673 12.2891 206.412 12.8259C207.151 13.3626 207.701 14.1194 207.983 14.9879C208.265 15.8563 208.265 16.7917 207.983 17.6602C207.701 18.5286 207.151 19.2855 206.412 19.8223L200.836 23.874C200.438 24.1618 200.142 24.5685 199.99 25.0354C199.838 25.5024 199.839 26.0055 199.991 26.4722L202.121 33.0273C202.404 33.8958 202.404 34.8313 202.121 35.6998C201.839 36.5682 201.289 37.3251 200.55 37.8618C199.812 38.3985 198.922 38.6876 198.009 38.6876C197.096 38.6876 196.206 38.3985 195.467 37.8618L189.891 33.8105C189.494 33.5212 189.016 33.3652 188.525 33.3652C188.034 33.3652 187.556 33.5212 187.159 33.8105L181.582 37.8618C180.846 38.4049 179.956 38.6996 179.041 38.7031V38.7031ZM188.525 31.3643C189.438 31.3644 190.328 31.6544 191.066 32.1924L196.643 36.2437C197.04 36.5323 197.518 36.6878 198.009 36.6878C198.5 36.6879 198.978 36.5326 199.375 36.2441C199.772 35.9556 200.068 35.5488 200.219 35.082C200.371 34.6152 200.371 34.1123 200.219 33.6455L198.089 27.0903C197.805 26.222 197.804 25.2859 198.087 24.4171C198.369 23.5482 198.92 22.7914 199.66 22.2559L205.236 18.2041C205.633 17.9156 205.929 17.5089 206.081 17.0421C206.232 16.5754 206.232 16.0726 206.081 15.6058C205.929 15.1391 205.633 14.7323 205.236 14.4439C204.839 14.1554 204.361 14 203.87 14H196.978C196.064 14.0017 195.174 13.7133 194.435 13.1763C193.695 12.6393 193.146 11.8816 192.865 11.0122L190.735 4.45703C190.584 3.99022 190.288 3.58341 189.891 3.29489C189.494 3.00638 189.016 2.85098 188.525 2.85098C188.034 2.85098 187.556 3.00638 187.159 3.29489C186.762 3.58341 186.466 3.99022 186.315 4.45703L184.184 11.0122C183.904 11.8815 183.354 12.6393 182.615 13.1763C181.876 13.7133 180.986 14.0017 180.072 14H173.18C172.689 14 172.211 14.1553 171.814 14.4438C171.416 14.7322 171.121 15.139 170.969 15.6057C170.818 16.0725 170.818 16.5753 170.969 17.0421C171.121 17.5088 171.416 17.9156 171.813 18.2041L177.39 22.2559C178.13 22.7915 178.681 23.5483 178.963 24.4171C179.245 25.286 179.245 26.222 178.961 27.0903L176.83 33.6455C176.679 34.1123 176.679 34.6151 176.831 35.0818C176.982 35.5486 177.278 35.9553 177.675 36.2438C178.072 36.5323 178.55 36.6876 179.041 36.6876C179.532 36.6876 180.01 36.5322 180.407 36.2437L185.984 32.1924C186.722 31.6544 187.612 31.3644 188.525 31.3643V31.3643Z" fill="#3F3D56"/>
</svg>
